<svg width="14" height="18" viewBox="0 0 14 18" fill="none" xmlns="http://www.w3.org/2000/svg">
<path d="M11.5833 0.666645H2.41667C1.97873 0.663271 1.55734 0.833716 1.2449 1.1406C0.93246 1.44748 0.754483 1.86575 0.75 2.30368V15.6963C0.754483 16.1342 0.93246 16.5525 1.2449 16.8594C1.55734 17.1662 1.97873 17.3367 2.41667 17.3333H11.5833C12.0213 17.3367 12.4427 17.1662 12.7551 16.8594C13.0675 16.5525 13.2455 16.1342 13.25 15.6963V2.30368C13.2455 1.86575 13.0675 1.44748 12.7551 1.1406C12.4427 0.833716 12.0213 0.663271 11.5833 0.666645ZM5.04891 3.89644C5.14672 3.58433 5.31923 3.30081 5.55147 3.07049C5.78371 2.84017 6.06864 2.67002 6.38155 2.57479C6.69446 2.47956 7.02588 2.46215 7.34705 2.52405C7.66822 2.58596 7.96942 2.72532 8.22451 2.93003C8.47961 3.13474 8.68089 3.39861 8.81088 3.69875C8.94086 3.99889 8.99564 4.32622 8.97043 4.65232C8.94523 4.97843 8.84082 5.29345 8.66626 5.57006C8.4917 5.84666 8.25227 6.07648 7.96875 6.23956C7.82441 6.32063 7.7039 6.43819 7.61928 6.58047C7.53466 6.72275 7.48889 6.88476 7.48656 7.05029V7.10237C7.48656 7.24051 7.43169 7.37298 7.33401 7.47066C7.23634 7.56833 7.10386 7.62321 6.96573 7.62321C6.8276 7.62321 6.69512 7.56833 6.59744 7.47066C6.49977 7.37298 6.4449 7.24051 6.4449 7.10237V7.05029C6.4475 6.70192 6.54154 6.36034 6.7176 6.05972C6.89365 5.7591 7.14556 5.50997 7.44812 5.33727C7.63111 5.23281 7.77492 5.07138 7.85763 4.87759C7.94034 4.6838 7.95742 4.46828 7.90625 4.26388C7.86513 4.09263 7.77746 3.93607 7.65292 3.81153C7.52838 3.687 7.37183 3.59932 7.20057 3.55821C6.99699 3.50748 6.78243 3.52432 6.58925 3.6062C6.39608 3.68807 6.23476 3.83054 6.12964 4.01211C6.09348 4.07364 6.06447 4.1391 6.04318 4.20722C6.00196 4.33908 5.91006 4.44917 5.78768 4.51327C5.66529 4.57737 5.52246 4.59023 5.3906 4.54901C5.25874 4.5078 5.14865 4.4159 5.08455 4.29351C5.02045 4.17113 5.00759 4.0283 5.0488 3.89644H5.04891ZM7.48438 8.73956C7.48585 8.7746 7.48234 8.80967 7.47396 8.84373C7.46775 8.87561 7.45905 8.90696 7.44792 8.93748C7.43229 8.96873 7.41667 8.99998 7.40104 9.03123C7.37995 9.05852 7.35735 9.0846 7.33333 9.10935C7.23456 9.20611 7.10181 9.26033 6.96354 9.2604C6.89522 9.26221 6.82742 9.24793 6.76562 9.21873C6.70349 9.19344 6.64688 9.15629 6.59896 9.10935C6.57494 9.0846 6.55234 9.05852 6.53125 9.03123C6.51573 8.99998 6.5001 8.96873 6.48438 8.93748L6.45312 8.84373C6.44737 8.80927 6.44389 8.77448 6.44271 8.73956C6.44424 8.60057 6.50036 8.46775 6.59896 8.36977C6.69863 8.27681 6.82985 8.22511 6.96615 8.22511C7.10244 8.22511 7.23366 8.27681 7.33333 8.36977C7.43051 8.46827 7.48481 8.60119 7.48438 8.73956ZM10.6458 15.25H3.35417C3.21603 15.25 3.08356 15.1951 2.98588 15.0974C2.88821 14.9998 2.83333 14.8673 2.83333 14.7291C2.83333 14.591 2.88821 14.4585 2.98588 14.3609C3.08356 14.2632 3.21603 14.2083 3.35417 14.2083H10.6458C10.784 14.2083 10.9164 14.2632 11.0141 14.3609C11.1118 14.4585 11.1667 14.591 11.1667 14.7291C11.1667 14.8673 11.1118 14.9998 11.0141 15.0974C10.9164 15.1951 10.784 15.25 10.6458 15.25ZM10.6458 13.1666H3.35417C3.21603 13.1666 3.08356 13.1118 2.98588 13.0141C2.88821 12.9164 2.83333 12.7839 2.83333 12.6458C2.83333 12.5077 2.88821 12.3752 2.98588 12.2775C3.08356 12.1799 3.21603 12.125 3.35417 12.125H10.6458C10.784 12.125 10.9164 12.1799 11.0141 12.2775C11.1118 12.3752 11.1667 12.5077 11.1667 12.6458C11.1667 12.7839 11.1118 12.9164 11.0141 13.0141C10.9164 13.1118 10.784 13.1666 10.6458 13.1666ZM10.6458 11.0833H3.35417C3.21603 11.0833 3.08356 11.0284 2.98588 10.9308C2.88821 10.8331 2.83333 10.7006 2.83333 10.5625C2.83333 10.4243 2.88821 10.2919 2.98588 10.1942C3.08356 10.0965 3.21603 10.0416 3.35417 10.0416H10.6458C10.784 10.0416 10.9164 10.0965 11.0141 10.1942C11.1118 10.2919 11.1667 10.4243 11.1667 10.5625C11.1667 10.7006 11.1118 10.8331 11.0141 10.9308C10.9164 11.0284 10.784 11.0833 10.6458 11.0833Z" fill="#131CA2"/>
</svg>
